<svg version="1.1" viewBox="0.0 0.0 770.8845144356956 583.1049868766404" fill="none" stroke="none" stroke-linecap="square" stroke-miterlimit="10" xmlns:xlink="http://www.w3.org/1999/xlink" xmlns="http://www.w3.org/2000/svg"><clipPath id="p.0"><path d="m0 0l770.8845 0l0 583.105l-770.8845 0l0 -583.105z" clip-rule="nonzero"/></clipPath><g clip-path="url(#p.0)"><path fill="#000000" fill-opacity="0.0" d="m0 0l770.8845 0l0 583.105l-770.8845 0z" fill-rule="evenodd"/><path fill="#cfe2f3" d="m0 0l770.5512 0l0 581.8268l-770.5512 0z" fill-rule="evenodd"/><path stroke="#000000" stroke-width="1.0" stroke-linejoin="round" stroke-linecap="butt" d="m0 0l770.5512 0l0 581.8268l-770.5512 0z" fill-rule="evenodd"/><path fill="#93c47d" d="m86.490814 62.902885l34.83465 0l0 459.40155l-34.83465 0z" fill-rule="evenodd"/><path stroke="#000000" stroke-width="1.0" stroke-linejoin="round" stroke-linecap="butt" d="m86.490814 62.902885l34.83465 0l0 459.40155l-34.83465 0z" fill-rule="evenodd"/><path fill="#93c47d" d="m121.32546 62.902885l34.83465 0l0 459.40155l-34.83465 0z" fill-rule="evenodd"/><path stroke="#000000" stroke-width="1.0" stroke-linejoin="round" stroke-linecap="butt" d="m121.32546 62.902885l34.83465 0l0 459.40155l-34.83465 0z" fill-rule="evenodd"/><path fill="#000000" fill-opacity="0.0" d="m86.490814 293.1706l69.6693 -0.56692505" fill-rule="evenodd"/><path stroke="#000000" stroke-width="1.0" stroke-linejoin="round" stroke-linecap="butt" d="m86.490814 293.1706l69.6693 -0.56692505" fill-rule="evenodd"/><path fill="#000000" fill-opacity="0.0" d="m86.490814 412.5092l69.6693 -0.56692505" fill-rule="evenodd"/><path stroke="#000000" stroke-width="1.0" stroke-linejoin="round" stroke-linecap="butt" d="m86.490814 412.5092l69.6693 -0.56692505" fill-rule="evenodd"/><path fill="#000000" fill-opacity="0.0" d="m86.490814 173.83202l69.6693 -0.56692505" fill-rule="evenodd"/><path stroke="#000000" stroke-width="1.0" stroke-linejoin="round" stroke-linecap="butt" d="m86.490814 173.83202l69.6693 -0.56692505" fill-rule="evenodd"/><path fill="#93c47d" d="m212.56955 63.18635l34.834656 0l0 459.4016l-34.834656 0z" fill-rule="evenodd"/><path stroke="#000000" stroke-width="1.0" stroke-linejoin="round" stroke-linecap="butt" d="m212.56955 63.18635l34.834656 0l0 459.4016l-34.834656 0z" fill-rule="evenodd"/><path fill="#93c47d" d="m247.4042 63.18635l34.834625 0l0 459.4016l-34.834625 0z" fill-rule="evenodd"/><path stroke="#000000" stroke-width="1.0" stroke-linejoin="round" stroke-linecap="butt" d="m247.4042 63.18635l34.834625 0l0 459.4016l-34.834625 0z" fill-rule="evenodd"/><path fill="#000000" fill-opacity="0.0" d="m212.56955 293.45407l69.66928 -0.56692505" fill-rule="evenodd"/><path stroke="#000000" stroke-width="1.0" stroke-linejoin="round" stroke-linecap="butt" d="m212.56955 293.45407l69.66928 -0.56692505" fill-rule="evenodd"/><path fill="#000000" fill-opacity="0.0" d="m212.56955 412.79266l69.66928 -0.56695557" fill-rule="evenodd"/><path stroke="#000000" stroke-width="1.0" stroke-linejoin="round" stroke-linecap="butt" d="m212.56955 412.79266l69.66928 -0.56695557" fill-rule="evenodd"/><path fill="#000000" fill-opacity="0.0" d="m212.56955 174.11548l69.66928 -0.56692505" fill-rule="evenodd"/><path stroke="#000000" stroke-width="1.0" stroke-linejoin="round" stroke-linecap="butt" d="m212.56955 174.11548l69.66928 -0.56692505" fill-rule="evenodd"/><path fill="#93c47d" d="m687.4278 63.18635l0 34.834644l-348.78738 0l0 -34.834644z" fill-rule="evenodd"/><path stroke="#000000" stroke-width="1.0" stroke-linejoin="round" stroke-linecap="butt" d="m687.4278 63.18635l0 34.834644l-348.78738 0l0 -34.834644z" fill-rule="evenodd"/><path fill="#93c47d" d="m687.43567 98.020996l0 34.83464l-348.78738 0l0 -34.83464z" fill-rule="evenodd"/><path stroke="#000000" stroke-width="1.0" stroke-linejoin="round" stroke-linecap="butt" d="m687.43567 98.020996l0 34.83464l-348.78738 0l0 -34.83464z" fill-rule="evenodd"/><path fill="#000000" fill-opacity="0.0" d="m425.979 63.18635l0.56692505 69.66928" fill-rule="evenodd"/><path stroke="#000000" stroke-width="1.0" stroke-linejoin="round" stroke-linecap="butt" d="m425.979 63.18635l0.56692505 69.66928" fill-rule="evenodd"/><path fill="#000000" fill-opacity="0.0" d="m512.7507 63.18635l0.56689453 69.66928" fill-rule="evenodd"/><path stroke="#000000" stroke-width="1.0" stroke-linejoin="round" stroke-linecap="butt" d="m512.7507 63.18635l0.56689453 69.66928" fill-rule="evenodd"/><path fill="#000000" fill-opacity="0.0" d="m599.52234 63.18635l0.56689453 69.66928" fill-rule="evenodd"/><path stroke="#000000" stroke-width="1.0" stroke-linejoin="round" stroke-linecap="butt" d="m599.52234 63.18635l0.56689453 69.66928" fill-rule="evenodd"/><path fill="#93c47d" d="m687.43567 190.10236l0 34.834656l-348.78738 0l0 -34.834656z" fill-rule="evenodd"/><path stroke="#000000" stroke-width="1.0" stroke-linejoin="round" stroke-linecap="butt" d="m687.43567 190.10236l0 34.834656l-348.78738 0l0 -34.834656z" fill-rule="evenodd"/><path fill="#93c47d" d="m687.44354 224.93701l0 34.834656l-348.78738 0l0 -34.834656z" fill-rule="evenodd"/><path stroke="#000000" stroke-width="1.0" stroke-linejoin="round" stroke-linecap="butt" d="m687.44354 224.93701l0 34.834656l-348.78738 0l0 -34.834656z" fill-rule="evenodd"/><path fill="#000000" fill-opacity="0.0" d="m425.98688 190.10236l0.56692505 69.66931" fill-rule="evenodd"/><path stroke="#000000" stroke-width="1.0" stroke-linejoin="round" stroke-linecap="butt" d="m425.98688 190.10236l0.56692505 69.66931" fill-rule="evenodd"/><path fill="#000000" fill-opacity="0.0" d="m512.75854 190.10236l0.56689453 69.66931" fill-rule="evenodd"/><path stroke="#000000" stroke-width="1.0" stroke-linejoin="round" stroke-linecap="butt" d="m512.75854 190.10236l0.56689453 69.66931" fill-rule="evenodd"/><path fill="#000000" fill-opacity="0.0" d="m599.5302 190.10236l0.56689453 69.66931" fill-rule="evenodd"/><path stroke="#000000" stroke-width="1.0" stroke-linejoin="round" stroke-linecap="butt" d="m599.5302 190.10236l0.56689453 69.66931" fill-rule="evenodd"/><path fill="#93c47d" d="m687.43567 317.01706l0 34.834656l-348.78738 0l0 -34.834656z" fill-rule="evenodd"/><path stroke="#000000" stroke-width="1.0" stroke-linejoin="round" stroke-linecap="butt" d="m687.43567 317.01706l0 34.834656l-348.78738 0l0 -34.834656z" fill-rule="evenodd"/><path fill="#93c47d" d="m687.44354 351.8517l0 34.834625l-348.78738 0l0 -34.834625z" fill-rule="evenodd"/><path stroke="#000000" stroke-width="1.0" stroke-linejoin="round" stroke-linecap="butt" d="m687.44354 351.8517l0 34.834625l-348.78738 0l0 -34.834625z" fill-rule="evenodd"/><path fill="#000000" fill-opacity="0.0" d="m425.98688 317.01706l0.56692505 69.66928" fill-rule="evenodd"/><path stroke="#000000" stroke-width="1.0" stroke-linejoin="round" stroke-linecap="butt" d="m425.98688 317.01706l0.56692505 69.66928" fill-rule="evenodd"/><path fill="#000000" fill-opacity="0.0" d="m512.75854 317.01706l0.56689453 69.66928" fill-rule="evenodd"/><path stroke="#000000" stroke-width="1.0" stroke-linejoin="round" stroke-linecap="butt" d="m512.75854 317.01706l0.56689453 69.66928" fill-rule="evenodd"/><path fill="#000000" fill-opacity="0.0" d="m599.5302 317.01706l0.56689453 69.66928" fill-rule="evenodd"/><path stroke="#000000" stroke-width="1.0" stroke-linejoin="round" stroke-linecap="butt" d="m599.5302 317.01706l0.56689453 69.66928" fill-rule="evenodd"/><path fill="#93c47d" d="m687.43567 452.63516l0 34.834656l-348.78738 0l0 -34.834656z" fill-rule="evenodd"/><path stroke="#000000" stroke-width="1.0" stroke-linejoin="round" stroke-linecap="butt" d="m687.43567 452.63516l0 34.834656l-348.78738 0l0 -34.834656z" fill-rule="evenodd"/><path fill="#93c47d" d="m687.44354 487.46982l0 34.834625l-348.78738 0l0 -34.834625z" fill-rule="evenodd"/><path stroke="#000000" stroke-width="1.0" stroke-linejoin="round" stroke-linecap="butt" d="m687.44354 487.46982l0 34.834625l-348.78738 0l0 -34.834625z" fill-rule="evenodd"/><path fill="#000000" fill-opacity="0.0" d="m425.98688 452.63516l0.56692505 69.66928" fill-rule="evenodd"/><path stroke="#000000" stroke-width="1.0" stroke-linejoin="round" stroke-linecap="butt" d="m425.98688 452.63516l0.56692505 69.66928" fill-rule="evenodd"/><path fill="#000000" fill-opacity="0.0" d="m512.75854 452.63516l0.56689453 69.66928" fill-rule="evenodd"/><path stroke="#000000" stroke-width="1.0" stroke-linejoin="round" stroke-linecap="butt" d="m512.75854 452.63516l0.56689453 69.66928" fill-rule="evenodd"/><path fill="#000000" fill-opacity="0.0" d="m599.5302 452.63516l0.56689453 69.66928" fill-rule="evenodd"/><path stroke="#000000" stroke-width="1.0" stroke-linejoin="round" stroke-linecap="butt" d="m599.5302 452.63516l0.56689453 69.66928" fill-rule="evenodd"/></g></svg>